<?xml version="1.0" standalone="no"?><!-- Generator: Gravit.io --><svg xmlns="http://www.w3.org/2000/svg" xmlns:xlink="http://www.w3.org/1999/xlink" style="isolation:isolate" viewBox="0 0 2000 2000" width="2000" height="2000"><defs><clipPath id="_clipPath_QqRiCNykASRKHL3EvrHLUPIzf8cpUsLL"><rect width="2000" height="2000"/></clipPath></defs><g clip-path="url(#_clipPath_QqRiCNykASRKHL3EvrHLUPIzf8cpUsLL)"><linearGradient id="_lgradient_2" x1="0.672397827379274%" y1="-1.2348054846011212%" x2="101.44329382591017%" y2="100.15725270548299%"><stop offset="1.7391304347826086%" stop-opacity="1" style="stop-color:rgb(19,143,244)"/><stop offset="97.3913043478261%" stop-opacity="1" style="stop-color:rgb(168,11,79)"/></linearGradient><path d=" M 1590.908 1701.1 L 1590.908 1732.204 C 1590.908 1787.396 1546.099 1832.204 1490.908 1832.204 L 509.092 1832.204 C 453.901 1832.204 409.092 1787.396 409.092 1732.204 L 409.092 267.796 C 409.092 212.604 453.901 167.796 509.092 167.796 L 1490.908 167.796 C 1546.099 167.796 1590.908 212.604 1590.908 267.796 L 1590.908 297.762 C 1590.908 352.953 1546.099 397.762 1490.908 397.762 L 758.285 397.762 C 703.093 397.762 658.285 442.57 658.285 497.762 L 658.285 750.864 C 658.285 806.055 703.093 850.864 758.285 850.864 L 1432.222 850.864 C 1487.414 850.864 1532.222 895.672 1532.222 950.864 L 1532.222 978.553 C 1532.222 1033.744 1487.414 1078.553 1432.222 1078.553 L 758.285 1078.553 C 703.093 1078.553 658.285 1123.361 658.285 1178.553 L 658.285 1501.1 C 658.285 1556.291 703.093 1601.1 758.285 1601.1 L 1490.908 1601.1 C 1546.099 1601.1 1590.908 1645.908 1590.908 1701.1 Z " fill="url(#_lgradient_2)"/></g></svg>