<?xml version="1.0" standalone="no"?><!-- Generator: Gravit.io --><svg xmlns="http://www.w3.org/2000/svg" xmlns:xlink="http://www.w3.org/1999/xlink" style="isolation:isolate" viewBox="0 0 2000 2000" width="2000" height="2000"><defs><clipPath id="_clipPath_wenOAElTU55RXWazIJAm1reWvV9i2dUw"><rect width="2000" height="2000"/></clipPath></defs><g clip-path="url(#_clipPath_wenOAElTU55RXWazIJAm1reWvV9i2dUw)"><linearGradient id="_lgradient_0" x1="0.672397827379274%" y1="-1.2348054846011212%" x2="101.44329382591017%" y2="100.15725270548299%"><stop offset="1.7391304347826086%" stop-opacity="1" style="stop-color:rgb(19,143,244)"/><stop offset="97.3913043478261%" stop-opacity="1" style="stop-color:rgb(168,11,79)"/></linearGradient><path d=" M 375.5 150 L 1684.5 150 C 1792.399 150 1880 237.601 1880 345.5 L 1880 1654.5 C 1880 1762.399 1792.399 1850 1684.5 1850 L 375.5 1850 C 267.601 1850 180 1762.399 180 1654.5 L 180 345.5 C 180 237.601 267.601 150 375.5 150 Z  M 1370.954 1440.129 L 1370.954 1459.656 C 1370.954 1494.303 1342.824 1522.433 1308.177 1522.433 L 691.823 1522.433 C 657.176 1522.433 629.046 1494.303 629.046 1459.656 L 629.046 540.344 C 629.046 505.697 657.176 477.567 691.823 477.567 L 1308.177 477.567 C 1342.824 477.567 1370.954 505.697 1370.954 540.344 L 1370.954 559.156 C 1370.954 593.804 1342.824 621.933 1308.177 621.933 L 848.259 621.933 C 813.611 621.933 785.482 650.063 785.482 684.71 L 785.482 843.6 C 785.482 878.247 813.611 906.377 848.259 906.377 L 1271.336 906.377 C 1305.983 906.377 1334.113 934.506 1334.113 969.154 L 1334.113 986.536 C 1334.113 1021.184 1305.983 1049.313 1271.336 1049.313 L 848.259 1049.313 C 813.611 1049.313 785.482 1077.442 785.482 1112.09 L 785.482 1314.575 C 785.482 1349.223 813.611 1377.352 848.259 1377.352 L 1308.177 1377.352 C 1342.824 1377.352 1370.954 1405.482 1370.954 1440.129 Z " fill-rule="evenodd" fill="url(#_lgradient_0)"/></g></svg>