<?xml version="1.0" standalone="no"?><!-- Generator: Gravit.io --><svg xmlns="http://www.w3.org/2000/svg" xmlns:xlink="http://www.w3.org/1999/xlink" style="isolation:isolate" viewBox="0 0 2000 2000" width="2000" height="2000"><defs><clipPath id="_clipPath_qNiUnyncnKDw5hDLauY1JF4OsTp7PXMA"><rect width="2000" height="2000"/></clipPath></defs><g clip-path="url(#_clipPath_qNiUnyncnKDw5hDLauY1JF4OsTp7PXMA)"><linearGradient id="_lgradient_1" x1="0.672397827379274%" y1="-1.2348054846011212%" x2="101.44329382591017%" y2="100.15725270548299%"><stop offset="1.7391304347826086%" stop-opacity="1" style="stop-color:rgb(19,143,244)"/><stop offset="97.3913043478261%" stop-opacity="1" style="stop-color:rgb(168,11,79)"/></linearGradient><path d=" M 0 0 L 2000 0 L 2000 2000 L 0 2000 L 0 0 Z " fill="url(#_lgradient_1)"/><path d=" M 1404.477 1479.904 L 1404.477 1501.195 C 1404.477 1538.973 1373.805 1569.645 1336.027 1569.645 L 663.973 1569.645 C 626.195 1569.645 595.523 1538.973 595.523 1501.195 L 595.523 498.805 C 595.523 461.027 626.195 430.355 663.973 430.355 L 1336.027 430.355 C 1373.805 430.355 1404.477 461.027 1404.477 498.805 L 1404.477 519.317 C 1404.477 557.096 1373.805 587.767 1336.027 587.767 L 834.546 587.767 C 796.767 587.767 766.096 618.439 766.096 656.217 L 766.096 829.466 C 766.096 867.244 796.767 897.916 834.546 897.916 L 1295.857 897.916 C 1333.635 897.916 1364.307 928.587 1364.307 966.366 L 1364.307 985.319 C 1364.307 1023.098 1333.635 1053.769 1295.857 1053.769 L 834.546 1053.769 C 796.767 1053.769 766.096 1084.441 766.096 1122.22 L 766.096 1343.003 C 766.096 1380.782 796.767 1411.453 834.546 1411.453 L 1336.027 1411.453 C 1373.805 1411.453 1404.477 1442.125 1404.477 1479.904 Z " fill="rgb(255,255,255)"/></g></svg>