<?xml version="1.0" standalone="no"?><!-- Generator: Gravit.io --><svg xmlns="http://www.w3.org/2000/svg" xmlns:xlink="http://www.w3.org/1999/xlink" style="isolation:isolate" viewBox="0 0 2000 2000" width="2000" height="2000"><defs><clipPath id="_clipPath_VOJRPkF5MDFcmJGDtYEea2R8oNh8IWLi"><rect width="2000" height="2000"/></clipPath></defs><g clip-path="url(#_clipPath_VOJRPkF5MDFcmJGDtYEea2R8oNh8IWLi)"><path d="M 398.5 99 L 1604.5 99 C 1768.419 99 1901.5 232.081 1901.5 396 L 1901.5 1602 C 1901.5 1765.919 1768.419 1899 1604.5 1899 L 398.5 1899 C 234.581 1899 101.5 1765.919 101.5 1602 L 101.5 396 C 101.5 232.081 234.581 99 398.5 99 Z" style="stroke:none;fill:#1C1C1C;stroke-miterlimit:10;"/><g id="Group"><path d=" M 1460.763 1544.841 L 1460.763 1569.014 C 1460.763 1611.904 1425.941 1646.726 1383.05 1646.726 L 620.058 1646.726 C 577.167 1646.726 542.346 1611.904 542.346 1569.014 L 542.346 430.986 C 542.346 388.096 577.167 353.274 620.058 353.274 L 1383.05 353.274 C 1425.941 353.274 1460.763 388.096 1460.763 430.986 L 1460.763 454.274 C 1460.763 497.164 1425.941 531.986 1383.05 531.986 L 813.712 531.986 C 770.821 531.986 735.999 566.808 735.999 609.699 L 735.999 806.39 C 735.999 849.281 770.821 884.102 813.712 884.102 L 1337.445 884.102 C 1380.335 884.102 1415.157 918.924 1415.157 961.815 L 1415.157 983.333 C 1415.157 1026.224 1380.335 1061.045 1337.445 1061.045 L 813.712 1061.045 C 770.821 1061.045 735.999 1095.867 735.999 1138.758 L 735.999 1389.417 C 735.999 1432.307 770.821 1467.129 813.712 1467.129 L 1383.05 1467.129 C 1425.941 1467.129 1460.763 1501.951 1460.763 1544.841 Z " fill="rgb(255,255,255)"/><g id="Group"><line x1="543.511" y1="102" x2="543.511" y2="1896" vector-effect="non-scaling-stroke" stroke-width="10" stroke="rgb(36,138,221)" stroke-linejoin="round" stroke-linecap="square" stroke-miterlimit="3"/><line x1="110" y1="355.217" x2="1893" y2="355.217" vector-effect="non-scaling-stroke" stroke-width="10" stroke="rgb(36,138,221)" stroke-linejoin="round" stroke-linecap="square" stroke-miterlimit="3"/><line x1="1461.929" y1="102" x2="1461.929" y2="1896" vector-effect="non-scaling-stroke" stroke-width="10" stroke="rgb(36,138,221)" stroke-linejoin="round" stroke-linecap="square" stroke-miterlimit="3"/><line x1="110" y1="1648.669" x2="1893" y2="1648.669" vector-effect="non-scaling-stroke" stroke-width="10" stroke="rgb(36,138,221)" stroke-linejoin="round" stroke-linecap="square" stroke-miterlimit="3"/><line x1="1893" y1="886.045" x2="110" y2="886.045" vector-effect="non-scaling-stroke" stroke-width="10" stroke="rgb(36,138,221)" stroke-linejoin="round" stroke-linecap="square" stroke-miterlimit="3"/><line x1="1893" y1="1062.988" x2="110" y2="1062.988" vector-effect="non-scaling-stroke" stroke-width="10" stroke="rgb(36,138,221)" stroke-linejoin="round" stroke-linecap="square" stroke-miterlimit="3"/><line x1="1893" y1="1469.072" x2="110" y2="1469.072" vector-effect="non-scaling-stroke" stroke-width="10" stroke="rgb(36,138,221)" stroke-linejoin="round" stroke-linecap="square" stroke-miterlimit="3"/><line x1="737.165" y1="102" x2="737.165" y2="1896" vector-effect="non-scaling-stroke" stroke-width="10" stroke="rgb(36,138,221)" stroke-linejoin="round" stroke-linecap="square" stroke-miterlimit="3"/><line x1="1268.275" y1="102" x2="1268.275" y2="1896" vector-effect="non-scaling-stroke" stroke-width="10" stroke="rgb(36,138,221)" stroke-linejoin="round" stroke-linecap="square" stroke-miterlimit="3"/><line x1="1461.929" y1="102" x2="1461.929" y2="1896" vector-effect="non-scaling-stroke" stroke-width="10" stroke="rgb(36,138,221)" stroke-linejoin="round" stroke-linecap="square" stroke-miterlimit="3"/><line x1="110" y1="533.929" x2="1893" y2="533.929" vector-effect="non-scaling-stroke" stroke-width="10" stroke="rgb(36,138,221)" stroke-linejoin="round" stroke-linecap="square" stroke-miterlimit="3"/></g></g></g></svg>